<?xml version="1.0" encoding="utf-8"?>
<!-- Generator: Adobe Illustrator 22.0.1, SVG Export Plug-In . SVG Version: 6.00 Build 0)  -->
<svg version="1.1" id="Layer_1" xmlns="http://www.w3.org/2000/svg" xmlns:xlink="http://www.w3.org/1999/xlink" x="0px" y="0px"
	 viewBox="0 0 128 128" style="enable-background:new 0 0 128 128;" xml:space="preserve">
<style type="text/css">
	.st999{fill:#2EFF17;stroke:#000000;stroke-width:2;stroke-miterlimit:10;}
</style>
<g id="leftarrow">
	<path class="st999" d="M116.9,45.9c-7.7-2.8-18.1-0.4-26.2-0.8c-5.9-0.3-11.3-2.3-17.1-1.8C69.7,34.8,71.3,24,69,14.7
		c-11.6-2-25.3,14.8-33.5,21.3C24.8,44.4,14.4,52,4,60.7c8.9,13.5,24,22.4,38,29.7c7.9,4.1,17.3,14.4,26.6,14.1
		c-1.9,0.1-3-16.9,0.9-19.2c3.1-1.8,11.4-0.4,15.1-0.4c11.9,0,25.5,2.1,36.9,0.6C122,75.3,129.2,50.5,116.9,45.9z"/>
</g>
</svg>
