<?xml version="1.0" encoding="utf-8"?>
<!-- Generator: Adobe Illustrator 22.0.1, SVG Export Plug-In . SVG Version: 6.00 Build 0)  -->
<svg version="1.1" id="Layer_1" xmlns="http://www.w3.org/2000/svg" xmlns:xlink="http://www.w3.org/1999/xlink" x="0px" y="0px"
	 viewBox="0 0 128 128" style="enable-background:new 0 0 128 128;" xml:space="preserve">
<style type="text/css">
	.st998{fill:#2EFF17;stroke:#000000;stroke-width:2;stroke-miterlimit:10;}
</style>
<g id="rightarrow">
<path class="st998" d="M8.5,75.8C5.3,64,0.7,41.4,3.3,41.4c10-0.2,20.1-1.3,30.1-0.9c6.2,0.3,14.1,3.1,20,2.2
	c0.3-7.8-1.2-17.1,2.3-24.1c-0.6-0.5-1.8-1.3-2.1-1.6C64.2,16,82.3,29.5,90.8,35.4c10.7,7.5,27.7,17.5,34.2,28.7
	c-18.2,19.8-40.8,29.2-62.4,43.5c-5-7.3-2.2-18.9-3.9-27.3c-0.4-1.9-24.4,4.5-26.4,4.9c-8.4,1.8-17.1,5-21.6-2.8
	C10.2,81.6,9.4,79.1,8.5,75.8z"/>
</g>
</svg>
